{
    "asset" : {
        "generator" : "Khronos glTF Blender I/O v1.5.17",
        "version" : "2.0"
    },
    "scene" : 0,
    "scenes" : [
        {
            "name" : "Scene",
            "nodes" : [
                1
            ]
        }
    ],
    "nodes" : [
        {
            "mesh" : 0,
            "name" : "Sink",
            "translation" : [
                0.05624055862426758,
                0,
                0.017740964889526367
            ]
        },
        {
            "children" : [
                0
            ],
            "mesh" : 1,
            "name" : "CabinetSink",
            "translation" : [
                -6,
                0,
                3
            ]
        }
    ],
    "meshes" : [
        {
            "name" : "Sink",
            "primitives" : [
                {
                    "attributes" : {
                        "POSITION" : 0,
                        "NORMAL" : 1,
                        "TEXCOORD_0" : 2
                    },
                    "indices" : 3
                }
            ]
        },
        {
            "name" : "CabinetSink",
            "primitives" : [
                {
                    "attributes" : {
                        "POSITION" : 4,
                        "NORMAL" : 5,
                        "TEXCOORD_0" : 6
                    },
                    "indices" : 7
                }
            ]
        }
    ],
    "accessors" : [
        {
            "bufferView" : 0,
            "componentType" : 5126,
            "count" : 266,
            "max" : [
                0.8188331127166748,
                2.370105743408203,
                0.6404852271080017
            ],
            "min" : [
                -0.9125354290008545,
                0.5068706274032593,
                -0.6881316304206848
            ],
            "type" : "VEC3"
        },
        {
            "bufferView" : 1,
            "componentType" : 5126,
            "count" : 266,
            "type" : "VEC3"
        },
        {
            "bufferView" : 2,
            "componentType" : 5126,
            "count" : 266,
            "type" : "VEC2"
        },
        {
            "bufferView" : 3,
            "componentType" : 5123,
            "count" : 900,
            "type" : "SCALAR"
        },
        {
            "bufferView" : 4,
            "componentType" : 5126,
            "count" : 116,
            "max" : [
                1,
                1.903153657913208,
                0.7565045356750488
            ],
            "min" : [
                -1,
                0,
                -0.7565045356750488
            ],
            "type" : "VEC3"
        },
        {
            "bufferView" : 5,
            "componentType" : 5126,
            "count" : 116,
            "type" : "VEC3"
        },
        {
            "bufferView" : 6,
            "componentType" : 5126,
            "count" : 116,
            "type" : "VEC2"
        },
        {
            "bufferView" : 7,
            "componentType" : 5123,
            "count" : 192,
            "type" : "SCALAR"
        }
    ],
    "bufferViews" : [
        {
            "buffer" : 0,
            "byteLength" : 3192,
            "byteOffset" : 0
        },
        {
            "buffer" : 0,
            "byteLength" : 3192,
            "byteOffset" : 3192
        },
        {
            "buffer" : 0,
            "byteLength" : 2128,
            "byteOffset" : 6384
        },
        {
            "buffer" : 0,
            "byteLength" : 1800,
            "byteOffset" : 8512
        },
        {
            "buffer" : 0,
            "byteLength" : 1392,
            "byteOffset" : 10312
        },
        {
            "buffer" : 0,
            "byteLength" : 1392,
            "byteOffset" : 11704
        },
        {
            "buffer" : 0,
            "byteLength" : 928,
            "byteOffset" : 13096
        },
        {
            "buffer" : 0,
            "byteLength" : 384,
            "byteOffset" : 14024
        }
    ],
    "buffers" : [
        {
            "byteLength" : 14408,
            "uri" : "cabinet_sink_model.bin"
        }
    ]
}
